<svg id="Layer_1" data-name="Layer 1" xmlns="http://www.w3.org/2000/svg" viewBox="0 0 400 400"><defs><style>.cls-1,.cls-5,.cls-8{fill:#fff;}.cls-2{fill:#f2a98a;}.cls-10,.cls-2,.cls-4,.cls-5,.cls-6,.cls-8,.cls-9{stroke:#231f20;stroke-miterlimit:10;}.cls-3{fill:#141418;}.cls-4{fill:#fcc4a5;}.cls-10,.cls-4,.cls-6{stroke-width:2px;}.cls-6{fill:#68000b;}.cls-7{fill:#aa1d3d;}.cls-8,.cls-9{stroke-width:3px;}.cls-10,.cls-9{fill:none;}</style></defs><circle class="cls-1" cx="200" cy="200" r="200"/><path class="cls-2" d="M112.74,265.12H229.32v67.49c0,30.37-46.62,55-58.29,55h0c-14.66,0-58.29-24.62-58.29-55V265.12Z" transform="translate(0 0)"/><path class="cls-3" d="M292.3,220.13h0a7.78,7.78,0,0,0,7.7-7.77V138.15a87.15,87.15,0,0,0-87.16-87H185.77v96.26l98.74,4.54v60.44a7.78,7.78,0,0,0,7.79,7.77Z" transform="translate(0 0)"/><path class="cls-4" d="M291.64,161v81.25a97.91,97.91,0,1,1-195.82.66V157.25a96,96,0,0,1,96.05-96A99.81,99.81,0,0,1,291.64,161Z" transform="translate(0 0)"/><path class="cls-3" d="M293,164.76a.12.12,0,0,1-.23,0,69.71,69.71,0,0,0-24.6-45.94,78.41,78.41,0,0,0-6.82-5,67.57,67.57,0,0,0-7.16-4.1l-2.38-1.13a72.36,72.36,0,0,0-12.42-4.29l-1.46-.31-2.22-.44-1.39-.26-.18,0-1.25-.18-3.17-.37a68.75,68.75,0,0,0-7.32-.38H203.78a147,147,0,0,0-33.05,5.23c-13.07,3.63-25.6,9.08-33.42,14-32.17,20-39.73,64.68-41,73.32v0c0,.66,0,1.32,0,2l-.12.12-14.06.39-.13-.11q-1.44-23-2.9-46.09h0C79,90.76,128.55,41.83,189.63,41.82a111.28,111.28,0,0,1,78.23,32q2.4,2.34,4.62,4.83a.11.11,0,0,1-.06.19l-17.71,3.53h0c1.33,1.19,2.6,2.41,3.87,3.67l.66.65c1.53,1.54,3.17,3.14,4.44,4.7l.22.25a117.55,117.55,0,0,1,14.2,19.86c.86,1.5,1.71,3.13,2.5,4.6A114.69,114.69,0,0,1,293,164.76Z" transform="translate(0 0)"/><path class="cls-3" d="M262.86,83.85c-.59.65-1.22,1.28-1.84,1.88l-1.07,1a41.09,41.09,0,0,1-13.24,7.61c-.72.25-1.48.5-2.2.69a38.08,38.08,0,0,1-7.42,1.31l-2.19-.44c-.91-.19-1.85-.34-2.79-.47L229,95.06a71.85,71.85,0,0,0-9.74-3.67L211,89a41.23,41.23,0,0,1-4.89-4.26,38,38,0,0,1-6.26-8.58,38.73,38.73,0,0,1-3.13-29.59h0c.22-.72.44-1.44.69-2.13a38.86,38.86,0,0,1,5.67-10.36,37.16,37.16,0,0,1,6.26-6.52,36.52,36.52,0,0,1,6-4l34.16-18.6,18.85,34a35.39,35.39,0,0,1,2.1,4.45c.25.63.47,1.25.66,1.88a38.59,38.59,0,0,1-8.24,38.55Z" transform="translate(0 0)"/><path class="cls-3" d="M229.76,69.32a33.34,33.34,0,0,1-16,19,27.91,27.91,0,0,1-3.47,1.6L209,89.51a104.39,104.39,0,0,0-32.66-5.26,34,34,0,0,1-4.1-4.13,33.39,33.39,0,0,1-1.35-40.74L178.38,29l12-16.69,27.12,19.48,1.19.91a33.34,33.34,0,0,1,11,36.67Z" transform="translate(0 0)"/><path class="cls-3" d="M269.87,90.78h0c4-7.22,13.42-10,21-6.18h0l13.77,6.89h0l-7.26,13.08c-4,7.22-13.42,10-21,6.18h0a14.43,14.43,0,0,1-6.51-20Z" transform="translate(0 0)"/><path class="cls-3" d="M193.5,51a21.18,21.18,0,0,1,0,6.26A20.52,20.52,0,0,1,189.9,66a22.46,22.46,0,0,1-1.5,1.88h-.85a64.19,64.19,0,0,0-19.79,6.26A25,25,0,0,1,164.32,73a21,21,0,0,1-12.09-15.66,22.08,22.08,0,0,1,0-7l1.28-8L155.61,30l20.64,3.39.94.18a20.74,20.74,0,0,1,11,6.27A21,21,0,0,1,193.5,51Z" transform="translate(0 0)"/><path class="cls-4" d="M97.63,229.1a20.09,20.09,0,1,1,0-40.17" transform="translate(0 0)"/><path class="cls-4" d="M286.37,188.93a20.09,20.09,0,0,1,0,40.17" transform="translate(0 0)"/><polygon class="cls-2" points="94.63 200.02 94.63 218.02 86.22 209.02 94.63 200.02"/><polygon class="cls-2" points="290.44 218.02 290.44 200.02 298.85 209.02 290.44 218.02"/><path class="cls-5" d="M184.34,311.21" transform="translate(0 0)"/><path class="cls-6" d="M153.5,284.43c-.18.81,8.65,1.49,16,8.67,2.85,2.79,3.79,4.9,5.33,7.17a21.65,21.65,0,0,0,3.67,4.16c1.22,1.09,7.27,6.48,14,7,8,.62,15.59-7.31,26.2-18.83,1.57-1.7,2.84-3,5.38-5.62a30.57,30.57,0,0,1,2.63-2.59c2-1.6,3.38-1.95,7.3-3.73.68-.31,2.1-1,5-2.39s7.6-3.71,7.54-3.84-15.2,9.09-31.67,13C183.6,294.85,153.84,282.9,153.5,284.43Z" transform="translate(0 0)"/><path class="cls-7" d="M179.28,303.91a26.09,26.09,0,0,0,6.16,4.28,25.67,25.67,0,0,0,7,2.3,14,14,0,0,0,4.6-.62,17.77,17.77,0,0,0,4.3-2.13,32,32,0,0,0,3.89-2.84,52.33,52.33,0,0,1-25.92-1Z" transform="translate(0 0)"/><path class="cls-5" d="M170.62,292.77a71.84,71.84,0,0,0,8.87,2,77.54,77.54,0,0,0,13.38.82,112.28,112.28,0,0,0,12.76-.92c4.59-.54,8.46-1.21,11.38-1.78l7-7.07-10.26,2.42a118.62,118.62,0,0,1-21.17,2.1,127,127,0,0,1-22.22-1.87,79.24,79.24,0,0,1-9.35-1.94,14.16,14.16,0,0,1,2,.8A23.33,23.33,0,0,1,167.2,290C168.12,290.7,169.3,291.62,170.62,292.77Z" transform="translate(0 0)"/><path class="cls-3" d="M296.31,48.7l-2.73,25.15a25.14,25.14,0,0,1-15.16,20.48c-.67.27-1.34.54-2,.77a25.24,25.24,0,0,1-8,1.24,20.51,20.51,0,0,1-2.48-.15h-.63a50.48,50.48,0,0,0-5.61-3.25l-1.87-.9a47.39,47.39,0,0,0-3.35-5.27l-.94-1.26a52.12,52.12,0,0,0-9.67-9.62,9.56,9.56,0,0,0-.22-1.39,25.83,25.83,0,0,1,1.88-13.37l.28-.6c.32-.64.64-1.29,1-1.94a25.48,25.48,0,0,1,6.33-7.23,25,25,0,0,1,18.17-5.19l1.89.2,2,.22h.38Z" transform="translate(0 0)"/><path class="cls-3" d="M105.68,118.25h0c-4-7.22-13.42-10-21-6.18h0L70.89,119h0L78.15,132c4,7.22,13.42,10,21,6.18h0a14.42,14.42,0,0,0,6.51-20Z" transform="translate(0 0)"/><path class="cls-3" d="M113.58,103h0c-1.9-8-10.21-13.25-18.56-11.65h0L79.9,94.25h0l3.45,14.55c1.9,8,10.21,13.26,18.56,11.65h0A14.41,14.41,0,0,0,113.58,103Z" transform="translate(0 0)"/><ellipse class="cls-8" cx="148.77" cy="200" rx="31.89" ry="30.83"/><ellipse class="cls-8" cx="247.07" cy="200.02" rx="31.89" ry="30.83"/><path class="cls-9" d="M279,200.83A44.49,44.49,0,0,0,300,183.49l-.59.46" transform="translate(0 0)"/><path class="cls-9" d="M76.08,165.23l-.08-.41c3,5,9.17,13.51,21.15,21a87.6,87.6,0,0,0,20.74,9.33" transform="translate(0 0)"/><polyline class="cls-10" points="189.59 191.44 189.59 224.93 181.83 236.6"/><polyline class="cls-10" points="206.45 191.44 206.45 222.63 214.21 233.49"/><line class="cls-10" x1="169.12" y1="175.66" x2="189.59" y2="195.66"/><line class="cls-10" x1="224.44" y1="177.6" x2="206.45" y2="195.16"/><path class="cls-10" d="M230.15,202.91a18.93,18.93,0,0,1,36,1.3" transform="translate(0 0)"/><path class="cls-10" d="M166.78,202.91a18.93,18.93,0,0,0-36,1.3" transform="translate(0 0)"/><path class="cls-10" d="M119.83,164a32.38,32.38,0,0,1,10.33-9.17c.6-.33,13.34-7.14,26.67-2.33,6.8,2.45,7,5.5,18.5,11.67A99.54,99.54,0,0,0,187,169.49" transform="translate(0 0)"/><path class="cls-10" d="M216.89,168.88c2.25-1.62,5.5-3.89,9.52-6.47,5-3.21,7.5-4.81,9.23-5.5A28.31,28.31,0,0,1,256,157c4.77,1.93,5.67,4,12.61,6.64a50.24,50.24,0,0,0,7.43,2.15" transform="translate(0 0)"/><path class="cls-10" d="M191.66,242.49a9.52,9.52,0,0,0,15-2" transform="translate(0 0)"/><path class="cls-10" d="M425.33,214.16" transform="translate(0 0)"/><path class="cls-10" d="M455.66,238.49" transform="translate(0 0)"/><path class="cls-10" d="M178.35,324.82a20.35,20.35,0,0,1,10.5-3.16,21.33,21.33,0,0,1,15.16,6.5" transform="translate(0 0)"/></svg>